<svg xmlns="http://www.w3.org/2000/svg" width="14.866" height="14.961" viewBox="0 0 14.866 14.961">
  <g id="Group_154" data-name="Group 154" transform="translate(-1.159 -1)">
    <path id="Path_2383" data-name="Path 2383" d="M16.025,14.28V3.6a.3.3,0,0,0-.388-.286L11.85,4.491a2.517,2.517,0,0,0,.055-.475A3.015,3.015,0,0,0,5.93,3.448L1.379,4.7a.3.3,0,0,0-.22.289V15.662a.3.3,0,0,0,.3.3.3.3,0,0,0,.079-.011l4.972-1.36,4.675,1.359a.292.292,0,0,0,.084.012.3.3,0,0,0,.089-.013l.005,0h0l4.453-1.38A.3.3,0,0,0,16.025,14.28Zm-9.813-.229L1.757,15.27V5.213l4.117-1.13a5.592,5.592,0,0,0,.338,1.4v8.572Zm4.756,1.212L6.81,14.055V6.965c.219.5.523,1.147.841,1.79.523,1.063.97,1.885.975,1.893a.3.3,0,0,0,.525,0c0-.008.452-.83.975-1.892.331-.67.647-1.349.842-1.792v8.3ZM9.59,8.491c-.272.553-.523,1.039-.7,1.378-.178-.338-.429-.825-.7-1.378C7.708,7.521,6.34,4.8,6.49,3.721a2.417,2.417,0,0,1,4.816.295C11.307,4.968,10.015,7.632,9.59,8.491Zm5.837,5.568-3.86,1.2V5.48c.037-.1.071-.207.1-.306l3.758-1.168V14.059Z" fill="#1793d5"/>
    <path id="Path_2384" data-name="Path 2384" d="M23.362,5.709a1.559,1.559,0,0,0-1.551,1.514v.036a1.548,1.548,0,0,0,2.875.8,1.522,1.522,0,0,0,.226-.8A1.552,1.552,0,0,0,23.362,5.709Zm.812,2.044a.93.93,0,0,1-.812.461.954.954,0,1,1,.952-.955A.928.928,0,0,1,24.174,7.753Z" transform="translate(-14.473 -3.3)" fill="#1793d5"/>
  </g>
</svg>
