<svg xmlns="http://www.w3.org/2000/svg" width="17.996" height="18.577" viewBox="0 0 17.996 18.577">
  <path id="Path_2051" data-name="Path 2051" d="M6.408,58.617h6.769a1.885,1.885,0,0,0,1.624-.929l3.068-5.666a.954.954,0,0,0-.361-1.3.9.9,0,0,0-1.263.372L13.176,56.76H6.859l-3.61-7.8a1.037,1.037,0,0,0-.812-.557H.9a.929.929,0,0,0,0,1.858h.9l3.249,7.059L3.881,59.546a1.894,1.894,0,0,0,1.624,2.787h9.927a.929.929,0,0,0,0-1.858H5.415Zm8.032,4.644a1.858,1.858,0,1,0,1.8,1.858A1.837,1.837,0,0,0,14.44,63.261Zm-9.025,0a1.858,1.858,0,0,0,0,3.715,1.858,1.858,0,0,0,0-3.715Z" transform="translate(0 -48.4)" fill="#9a9a9a"/>
</svg>
