<svg xmlns="http://www.w3.org/2000/svg" width="21.46" height="19.106" viewBox="0 0 21.46 19.106">
  <g id="Group_534" data-name="Group 534" transform="translate(-0.25 -2.17)">
    <path id="Path_2660" data-name="Path 2660" d="M1.713,21.276a1.42,1.42,0,0,1-.623-.156A1.439,1.439,0,0,1,.25,19.813V10.266a8.1,8.1,0,0,1,8.1-8.1h5.268a8.1,8.1,0,0,1,0,16.192H5.961L2.585,20.971a1.47,1.47,0,0,1-.872.305ZM8.358,3.714a6.558,6.558,0,0,0-6.551,6.551v9.341l3.413-2.6a.785.785,0,0,1,.48-.193h7.928a6.551,6.551,0,0,0,0-13.078Z" transform="translate(0 0)" fill="#2ccb20"/>
    <path id="Path_2661" data-name="Path 2661" d="M19.47,13.46H10.53c-.47,0-.85-.56-.85-1.25s.381-1.25.85-1.25H19.47c.47,0,.85.56.85,1.25s-.381,1.25-.85,1.25Zm-4.041,6.12h-4.9c-.47,0-.85-.56-.85-1.25s.381-1.25.85-1.25h4.9c.47,0,.85.56.85,1.25S15.9,19.58,15.429,19.58Z" transform="translate(-4.009 -4.612)" fill="#2ccb20"/>
  </g>
</svg>
