<svg xmlns="http://www.w3.org/2000/svg" width="13.719" height="16.385" viewBox="0 0 13.719 16.385">
  <g id="Layer_1" data-name="Layer 1" transform="translate(-9.2 -3.998)">
    <path id="Path_2377" data-name="Path 2377" d="M20.466,12.387a1.658,1.658,0,0,0-1.42.331,5.31,5.31,0,0,1-.875-2.572,4.008,4.008,0,0,1,2.558-3.737A7.741,7.741,0,0,0,20.466,12.387Z" transform="translate(-6.271 -1.686)" fill="#bdbcf7"/>
    <path id="Path_2378" data-name="Path 2378" d="M23.516,32.007v6.047a.866.866,0,0,1-.866.872H11.566a.866.866,0,0,1-.866-.863v-.256a2.253,2.253,0,0,0,2.247-.223c8.15,2.163,8.833-2.581,8.2-6.435h1.5a.866.866,0,0,1,.863.857Z" transform="translate(-1.049 -18.983)" fill="#efefef"/>
    <path id="Path_2379" data-name="Path 2379" d="M17.81,11.153a.448.448,0,0,1-.373-.2,4.462,4.462,0,1,1,7.4,0,.452.452,0,0,1-.749-.505,3.514,3.514,0,0,0,.6-1.989,3.559,3.559,0,1,0-6.51,1.989.448.448,0,0,1-.12.626A.439.439,0,0,1,17.81,11.153Z" transform="translate(-5.226 0)" fill="#0860a8"/>
    <path id="Path_2380" data-name="Path 2380" d="M29.839,14.862a.987.987,0,0,1-.629.43v.075a.451.451,0,1,1-.9,0V15.28a2.241,2.241,0,0,1-.37-.117.457.457,0,1,1,.37-.836,1.053,1.053,0,0,0,.737.081.9.9,0,0,0-.454-.361,1.691,1.691,0,0,1-.963-.93.86.86,0,0,1,.063-.707.966.966,0,0,1,.617-.439v-.159a.451.451,0,1,1,.9,0v.171a2.271,2.271,0,0,1,.373.126.454.454,0,1,1-.373.827,1.053,1.053,0,0,0-.737-.081.885.885,0,0,0,.454.361,1.7,1.7,0,0,1,.963.93A.854.854,0,0,1,29.839,14.862Z" transform="translate(-12.85 -5.147)" fill="#1793d5"/>
    <path id="Path_2381" data-name="Path 2381" d="M21.6,29.61H10.518A1.321,1.321,0,0,0,9.2,30.931v6.041a1.318,1.318,0,0,0,1.318,1.318H21.6a1.318,1.318,0,0,0,1.318-1.318V30.931A1.321,1.321,0,0,0,21.6,29.61Zm0,7.777H10.518a.415.415,0,0,1-.415-.415V30.931a.415.415,0,0,1,.415-.415H21.6a.415.415,0,0,1,.415.415V31.96H17.825a1.321,1.321,0,0,0-1.318,1.318v1.351a1.321,1.321,0,0,0,1.318,1.318h4.191v1.029A.415.415,0,0,1,21.6,37.387Zm.415-2.347H17.825a.415.415,0,0,1-.415-.415V33.274a.415.415,0,0,1,.415-.415h4.191Z" transform="translate(0 -17.907)" fill="#293149"/>
    <path id="Path_2382" data-name="Path 2382" d="M17.591,39.958a.454.454,0,0,1-.451-.451V34.241a.451.451,0,0,1,.9,0v5.265a.451.451,0,0,1-.451.451Z" transform="translate(-5.551 -20.829)" fill="#0860a8"/>
    <circle id="Ellipse_52" data-name="Ellipse 52" cx="0.457" cy="0.457" r="0.457" transform="translate(17.958 15.587)" fill="#6c5ffd"/>
  </g>
</svg>
