<svg id="gift-box" xmlns="http://www.w3.org/2000/svg" width="38.293" height="43.858" viewBox="0 0 38.293 43.858">
  <path id="Path_2666" data-name="Path 2666" d="M36.283,242.592l4.163-1.516a1.2,1.2,0,0,1,.437-.077H67.557a1.272,1.272,0,0,1,1.285,1.285v18.074a3.85,3.85,0,0,1-3.855,3.855H39.29a3.85,3.85,0,0,1-3.855-3.855V243.8A1.275,1.275,0,0,1,36.283,242.592Z" transform="translate(-30.802 -220.355)" fill="#fc1a40"/>
  <path id="Path_2667" data-name="Path 2667" d="M230.435,243.8v16.558a3.85,3.85,0,0,0,3.855,3.855h12.849V241H235.883a1.2,1.2,0,0,0-.437.077l-4.163,1.516A1.275,1.275,0,0,0,230.435,243.8Z" transform="translate(-225.802 -220.355)" fill="#c60034"/>
  <path id="Path_2668" data-name="Path 2668" d="M158.032,8.377a5.2,5.2,0,0,1,3.521-3.726,5.12,5.12,0,0,1,4.985,1.079l2.981,2.621.591-3.932A5.206,5.206,0,0,1,173.271.385a4.878,4.878,0,0,1,1-.283,5.11,5.11,0,0,1,4.06.9,5.188,5.188,0,0,1-1.285,9.1l-2.775,1-3.418,1.259h-.026l-5.936,2.184a5.514,5.514,0,0,1-1.8.309,5.236,5.236,0,0,1-5.063-6.476Z" transform="translate(-152.937 0)" fill="#fe9923"/>
  <path id="Path_2669" data-name="Path 2669" d="M232.18,14.6a5.2,5.2,0,0,0,3.469,1.336,5.514,5.514,0,0,0,1.8-.309l5.936-2.184h.026l3.418-1.259v-11a4.886,4.886,0,0,0-1,.283A5.206,5.206,0,0,0,242.664,5.5l-.591,3.932-2.981-2.621a5.12,5.12,0,0,0-4.985-1.079A5.207,5.207,0,0,0,232.18,14.6Z" transform="translate(-225.491 -1.085)" fill="#fe8821"/>
  <path id="Path_2670" data-name="Path 2670" d="M32.721,66.152l1.747,4.831a1.3,1.3,0,0,0,1.208.822,1.2,1.2,0,0,0,.437-.077L49.4,66.9l1.208-3.983,3.212.719,2.827.642,13.286-4.831A1.308,1.308,0,0,0,70.7,57.8l-1.773-4.831a3.831,3.831,0,0,0-4.934-2.313l-10.176,3.7-.694.257s-2.775,5.037-2.852,5.037c-.051,0-1.156-.617-2.236-1.208s-2.158-1.208-2.158-1.208L35.033,61.192a3.9,3.9,0,0,0-2.184,2A3.8,3.8,0,0,0,32.721,66.152Z" transform="translate(-32.482 -46.099)" fill="#ff3e75"/>
  <path id="Path_2671" data-name="Path 2671" d="M230.673,108.194l1.747,4.831a1.3,1.3,0,0,0,1.208.822,1.2,1.2,0,0,0,.437-.077l13.286-4.831,1.208-3.983,3.212.719V96.4l-.694.257s-2.775,5.037-2.853,5.037c-.051,0-1.156-.617-2.236-1.208s-2.159-1.208-2.159-1.208l-10.844,3.957a3.9,3.9,0,0,0-2.184,2A3.8,3.8,0,0,0,230.673,108.194Z" transform="translate(-230.435 -88.141)" fill="#fc1a40"/>
  <g id="Group_534" data-name="Group 534" transform="translate(13.396 8.514)">
    <path id="Path_2672" data-name="Path 2672" d="M193.144,241v23.214h-7.709V241Z" transform="translate(-181.349 -228.869)" fill="#fcbf29"/>
    <path id="Path_2673" data-name="Path 2673" d="M204.682,99.4l.694,1.9,2.827,7.761-2.827,1.028-3.212,1.156-1.208.437-3.521-9.662Z" transform="translate(-197.435 -99.398)" fill="#fcbf29"/>
  </g>
  <g id="Group_535" data-name="Group 535" transform="translate(13.396 8.514)">
    <rect id="Rectangle_2308" data-name="Rectangle 2308" width="3.855" height="23.214" transform="translate(4.086 12.13)" fill="#fe9923"/>
    <path id="Path_2674" data-name="Path 2674" d="M230.435,102.019l3.521,9.662,1.208-.437,3.212-1.156V101.3l-.694-1.9Z" transform="translate(-230.435 -99.398)" fill="#fe9923"/>
  </g>
</svg>
