<svg xmlns="http://www.w3.org/2000/svg" width="18" height="12.6" viewBox="0 0 18 12.6">
  <path id="Icon_awesome-money-bill-wave" data-name="Icon awesome-money-bill-wave" d="M17.47,2.882A8.329,8.329,0,0,0,14.2,2.25C10.732,2.25,7.268,4,3.8,4A8.533,8.533,0,0,1,1.2,3.617a.962.962,0,0,0-.291-.046A.9.9,0,0,0,0,4.466v8.923a.894.894,0,0,0,.53.829A8.324,8.324,0,0,0,3.8,14.85c3.464,0,6.928-1.754,10.392-1.754a8.533,8.533,0,0,1,2.606.386.962.962,0,0,0,.291.046A.9.9,0,0,0,18,12.633V3.711A.9.9,0,0,0,17.47,2.882ZM1.35,5.069a9.787,9.787,0,0,0,1.764.251A1.8,1.8,0,0,1,1.35,6.769Zm0,8.015V11.74a1.8,1.8,0,0,1,1.792,1.727A6.794,6.794,0,0,1,1.35,13.084ZM9,11.25a2.506,2.506,0,0,1-2.25-2.7A2.506,2.506,0,0,1,9,5.85a2.506,2.506,0,0,1,2.25,2.7A2.506,2.506,0,0,1,9,11.25Zm7.65.781a9.67,9.67,0,0,0-1.528-.237,1.8,1.8,0,0,1,1.528-1.386Zm0-6.64A1.8,1.8,0,0,1,15.08,3.66a6.761,6.761,0,0,1,1.57.356Z" transform="translate(0 -2.25)" fill="#0aa233"/>
</svg>
