<svg id="question" xmlns="http://www.w3.org/2000/svg" width="21.768" height="21.648" viewBox="0 0 21.768 21.648">
  <path id="Path_2054" data-name="Path 2054" d="M13.6,23.9a7.185,7.185,0,0,1,2.372-9.916,7.27,7.27,0,0,1,9.97,2.358,7.176,7.176,0,0,1,1.075,3.882,7.358,7.358,0,0,1-7.443,7.1H12.886l.7-1.189A2.156,2.156,0,0,0,13.6,23.9Z" transform="translate(-11.991 -12.369)" fill="#fff" stroke="#959595" stroke-width="1"/>
  <path id="Path_2055" data-name="Path 2055" d="M173.9,171.542a7.184,7.184,0,0,0-2.376-9.915,7.267,7.267,0,0,0-2.831-1,7.2,7.2,0,0,1,.072,1.066,7.358,7.358,0,0,1-7.443,7.1h-.756a7.4,7.4,0,0,0,7.361,6.177h6.688l-.7-1.189A2.157,2.157,0,0,1,173.9,171.542Z" transform="translate(-153.737 -153.833)" fill="rgba(149,149,149,0.59)"/>
  <g id="Group_24" data-name="Group 24">
    <path id="Path_2056" data-name="Path 2056" d="M20.616,19.691a1.635,1.635,0,0,1,0-1.7A7.7,7.7,0,0,0,18.071,7.37,7.786,7.786,0,0,0,15.44,6.358,7.8,7.8,0,0,0,7.158.037,7.71,7.71,0,0,0,1.17,11.81a1.635,1.635,0,0,1,0,1.7L.45,14.7a.513.513,0,0,0,.181.705A.521.521,0,0,0,.9,15.48H6.4a7.936,7.936,0,0,0,7.764,6.177h6.708a.516.516,0,0,0,.518-.515.511.511,0,0,0-.072-.263ZM1.8,14.451l.248-.417a2.659,2.659,0,0,0,0-2.764,6.671,6.671,0,0,1,2.2-9.207,6.75,6.75,0,0,1,9.258,2.192,6.662,6.662,0,0,1,1,3.6,6.842,6.842,0,0,1-6.926,6.594Zm12.387,6.177A6.9,6.9,0,0,1,7.458,15.48h.124a7.879,7.879,0,0,0,7.961-7.608V7.424a6.676,6.676,0,0,1,4.193,10.023,2.659,2.659,0,0,0,0,2.764l.248.417h-5.8Z" transform="translate(0 -0.01)" fill="rgba(149,149,149,0.59)"/>
    <path id="Path_2057" data-name="Path 2057" d="M121.643,106.8h0c0,.515-.487.844-1.734.9l-.052.051.228,1.6h1.035l.109-.6c1.056-.185,1.91-.7,1.91-1.961h0c0-1.308-.968-2.059-2.4-2.059a3.114,3.114,0,0,0-2.422,1.066l.911.994a2.044,2.044,0,0,1,1.486-.679C121.307,106.1,121.643,106.359,121.643,106.8Z" transform="translate(-113.289 -100.293)" fill="rgba(149,149,149,0.59)"/>
    <rect id="Rectangle_16" data-name="Rectangle 16" width="1.605" height="1.575" transform="translate(6.469 9.832)" fill="#747474"/>
  </g>
</svg>
