<svg id="Group_157" data-name="Group 157" xmlns="http://www.w3.org/2000/svg" width="12.256" height="10.15" viewBox="0 0 12.256 10.15">
  <path id="Path_2388" data-name="Path 2388" d="M1.542.771a.771.771,0,1,0-.771.771A.771.771,0,0,0,1.542.771Z" transform="translate(6.895 9.958) rotate(180)" fill="#f0f"/>
  <path id="Path_2389" data-name="Path 2389" d="M4.186,13.854a.771.771,0,1,1-.771-.771A.771.771,0,0,1,4.186,13.854Z" transform="translate(-0.73 -4.667)" fill="#e4eff8"/>
  <path id="Path_2390" data-name="Path 2390" d="M1.542.771a.771.771,0,1,0-.771.771A.771.771,0,0,0,1.542.771Z" transform="translate(6.895 9.958) rotate(180)" fill="#e4eff8"/>
  <path id="Path_2391" data-name="Path 2391" d="M8.167,14.652a.771.771,0,0,0,.7-.453A.769.769,0,0,1,7.848,13.18a.77.77,0,0,0,.318,1.472Z" transform="translate(-2.043 -4.694)" fill="#c4dcf0"/>
  <path id="Path_2392" data-name="Path 2392" d="M11.755,1.72a.382.382,0,0,1,.383.383V7.848a.382.382,0,0,1-.383.383H5.244a.766.766,0,0,0-1.532,0H.648a.382.382,0,0,1-.383-.383V5.742a.766.766,0,1,0,0-1.532V2.1A.382.382,0,0,1,.648,1.72H3.712a.766.766,0,0,0,1.532,0Z" transform="translate(-0.073 -1.528)" fill="#ffca28"/>
  <path id="Path_2393" data-name="Path 2393" d="M.648,1.72A.382.382,0,0,0,.265,2.1V4.21a.758.758,0,0,1,.383.106Z" transform="translate(-0.073 -1.528)" fill="#ecb200"/>
  <path id="Path_2394" data-name="Path 2394" d="M.975.487A.487.487,0,1,0,.487.975.487.487,0,0,0,.975.487Z" transform="translate(8.826 4.788) rotate(180)" fill="#e4eff8"/>
  <path id="Path_2395" data-name="Path 2395" d="M.648,7.13a.758.758,0,0,1-.383.106V9.342a.382.382,0,0,0,.383.383H3.712a.758.758,0,0,1,.106-.383H1.031a.382.382,0,0,1-.383-.383Z" transform="translate(-0.073 -3.023)" fill="#ecb200"/>
  <path id="Path_2396" data-name="Path 2396" d="M11.335,7.707a.487.487,0,0,0,.458-.322.486.486,0,0,1-.6-.63.487.487,0,0,0,.147.952Z" transform="translate(-2.996 -2.919)" fill="#c4dcf0"/>
  <path id="Path_2397" data-name="Path 2397" d="M7,10.186a.758.758,0,0,1,.106.383h6.511A.382.382,0,0,0,14,10.186Z" transform="translate(-1.933 -3.867)" fill="#ecb200"/>
  <path id="Path_2398" data-name="Path 2398" d="M.975.487A.487.487,0,1,0,.487.975.487.487,0,0,0,.975.487Z" transform="translate(10.532 3.082) rotate(180)" fill="#e4eff8"/>
  <path id="Path_2399" data-name="Path 2399" d="M10.775,5.35a.487.487,0,0,0,.458-.322.486.486,0,0,1-.6-.63.487.487,0,0,0,.147.952ZM2.645,11.455a.77.77,0,0,0,1.472.318A.769.769,0,0,1,3.1,10.754a.771.771,0,0,0-.453.7Z" transform="translate(-0.73 -2.268)" fill="#c4dcf0"/>
  <path id="Path_2400" data-name="Path 2400" d="M.574,1.455A.575.575,0,0,0,0,2.03V4.137a.192.192,0,0,0,.191.191.574.574,0,1,1,0,1.149A.192.192,0,0,0,0,5.669V7.775a.574.574,0,0,0,.574.574H3.645c.156.256.358.6.536.894l-.613,1.02a.961.961,0,1,0,.023.7l.019-.028L4.4,9.614,5.2,10.938a.209.209,0,0,0,.02.028.962.962,0,1,0,.023-.7L4.628,9.242l.536-.893h6.517a.574.574,0,0,0,.576-.574V2.03a.576.576,0,0,0-.576-.575H5.171a.192.192,0,0,0-.193.192.574.574,0,0,1-1.149,0,.192.192,0,0,0-.191-.192Zm0,.383H3.466a.955.955,0,0,0,.746.747v.6a.191.191,0,1,0,.383,0V2.586a.955.955,0,0,0,.746-.748h6.339a.191.191,0,0,1,.192.192V7.775a.19.19,0,0,1-.192.191H5.393L7.057,5.193a.19.19,0,0,0-.178-.29A.186.186,0,0,0,6.729,5L5.173,7.587A.962.962,0,0,0,4.6,7.219V6.626a.191.191,0,1,0-.383,0V7.22a.956.956,0,0,0-.577.369L2.08,5A.186.186,0,0,0,1.906,4.9a.191.191,0,0,0-.155.291L3.415,7.966H.574a.189.189,0,0,1-.191-.191V5.841A.958.958,0,0,0,1.149,4.9a.961.961,0,0,0-.766-.939V2.03a.191.191,0,0,1,.191-.192Zm.384.383a.191.191,0,1,0,.191.191A.191.191,0,0,0,.957,2.222Zm10.341,0a.191.191,0,1,0,.191.191A.191.191,0,0,0,11.3,2.222ZM10.045,3.371a.679.679,0,1,0,.678.678A.679.679,0,0,0,10.045,3.371Zm-2.076.121a.192.192,0,0,0-.129.33l2.435,2.436a.192.192,0,1,0,.27-.272L8.108,3.549a.2.2,0,0,0-.139-.057ZM4.4,3.752a.19.19,0,0,0-.189.192V4.52a.192.192,0,1,0,.383,0V3.944A.19.19,0,0,0,4.4,3.752Zm5.643,0a.3.3,0,1,1-.3.3A.3.3,0,0,1,10.045,3.754ZM8.339,5.077a.678.678,0,1,0,.679.678A.68.68,0,0,0,8.339,5.077ZM4.4,5.1a.189.189,0,0,0-.189.192v.574a.192.192,0,1,0,.383,0V5.289A.189.189,0,0,0,4.4,5.1Zm3.937.363a.3.3,0,1,1-.3.3A.295.295,0,0,1,8.339,5.46ZM.957,7.2a.191.191,0,1,0,.191.191A.191.191,0,0,0,.957,7.2ZM11.3,7.2a.191.191,0,1,0,.191.191A.191.191,0,0,0,11.3,7.2ZM4.4,7.583a.575.575,0,0,1,.542.384l-.542.9-.542-.9A.575.575,0,0,1,4.4,7.583Zm-1.72,2.481a.579.579,0,1,1-.578.578.579.579,0,0,1,.578-.578Zm3.44,0a.579.579,0,1,1-.58.578A.579.579,0,0,1,6.124,10.064Z" transform="translate(0 -1.455)"/>
</svg>
