<svg xmlns="http://www.w3.org/2000/svg" width="16.242" height="17.039" viewBox="0 0 16.242 17.039">
  <g id="Group_153" data-name="Group 153" transform="translate(-35.811 -12.622)">
    <path id="Path_2373" data-name="Path 2373" d="M44.361,248.941l-.721-.38-1.733-.916q-1.051-.555-2.1-1.112l-1.813-.957c-.293-.155-.585-.315-.882-.466L37.1,245.1l.423.737v-6.726c0-.31.005-.621,0-.931v-.012l-1.282.737.721.382,1.733.916,2.1,1.112,1.813.958c.293.155.585.315.882.466l.012.007c-.142-.246-.281-.491-.423-.737v6.719c0,.31,0,.621,0,.931v.012a.888.888,0,0,0,.249.6.856.856,0,0,0,1.207,0,.884.884,0,0,0,.249-.6v-6.719c0-.31,0-.621,0-.931v-.012a.852.852,0,0,0-.423-.737l-.721-.382-1.733-.916-2.1-1.112-1.813-.958c-.293-.155-.587-.314-.882-.466l-.012-.007a.871.871,0,0,0-.861,0,.859.859,0,0,0-.423.737V244.9c0,.31,0,.621,0,.931v.012a.85.85,0,0,0,.423.737l.721.38,1.733.916q1.051.555,2.1,1.112l1.813.957c.293.155.587.314.882.466l.012.007a.9.9,0,0,0,.657.085.872.872,0,0,0,.51-.392.859.859,0,0,0,.085-.657A.851.851,0,0,0,44.361,248.941Z" transform="translate(0 -220.868)" fill="#1793d5"/>
    <path id="Path_2374" data-name="Path 2374" d="M469.6,245.3l-.721.38-1.733.916q-1.051.555-2.1,1.112l-1.813.957c-.293.155-.59.305-.882.466l-.012.007,1.282.737v-6.719c0-.31.005-.621,0-.931v-.012c-.142.246-.281.491-.423.737l.721-.382,1.733-.916,2.1-1.112,1.813-.958c.293-.155.59-.307.882-.466l.012-.007-1.282-.737V245.1c0,.31,0,.621,0,.931v.012a.888.888,0,0,0,.249.6.856.856,0,0,0,1.207,0,.884.884,0,0,0,.249-.6v-6.726c0-.31,0-.621,0-.931v-.012a.861.861,0,0,0-.423-.737.871.871,0,0,0-.861,0l-.721.382-1.733.916-2.1,1.112-1.813.958c-.293.155-.592.305-.882.466l-.012.007a.848.848,0,0,0-.423.737v6.719c0,.31,0,.621,0,.931v.012a.861.861,0,0,0,.423.737.876.876,0,0,0,.861,0l.721-.38,1.733-.916q1.051-.555,2.1-1.112l1.813-.957c.293-.155.592-.305.882-.466l.012-.007a.853.853,0,0,0-.859-1.473Z" transform="translate(-418.834 -221.065)" fill="#1793d5"/>
    <path id="Path_2375" data-name="Path 2375" d="M51.1,16.569l-.721.382-1.733.916-2.1,1.112-1.813.958c-.293.155-.59.307-.882.466l-.012.007H44.7l-.721-.382-1.733-.916L40.14,18l-1.813-.958c-.293-.155-.585-.315-.882-.466l-.012-.007v1.472l.721-.38,1.733-.916,2.1-1.112q.906-.478,1.813-.958c.293-.155.59-.307.882-.466L44.7,14.2h-.861l.721.38,1.733.916,2.1,1.112q.906.478,1.813.958c.293.155.587.314.882.466l.012.007a.9.9,0,0,0,.657.085.871.871,0,0,0,.51-.392.853.853,0,0,0-.307-1.166l-.732-.385-1.738-.917-2.113-1.115-1.806-.955c-.29-.153-.578-.312-.87-.459a.9.9,0,0,0-.553-.106.948.948,0,0,0-.327.107c-.032.017-.063.034-.1.049l-.45.237-1.644.868L39.539,15l-1.891,1q-.517.274-1.033.546l-.048.026a.858.858,0,0,0,0,1.472l.732.387,1.738.919,2.113,1.117,1.806.955c.29.153.578.312.87.46a.9.9,0,0,0,.553.106.949.949,0,0,0,.327-.107c.032-.017.063-.034.1-.049l.45-.237,1.644-.87,2.094-1.107,1.891-1,1.033-.547.048-.026a.853.853,0,0,0-.859-1.473Z" transform="translate(-0.333)" fill="#1793d5"/>
    <path id="Path_2376" data-name="Path 2376" d="M250.4,130.7l.721-.382,1.733-.916,2.1-1.112,1.813-.958c.293-.155.592-.305.882-.466l.012-.007a.852.852,0,1,0-.859-1.472l-.721.382-1.733.916-2.1,1.112-1.813.958c-.293.155-.592.305-.882.466l-.012.007a.852.852,0,1,0,.859,1.472Z" transform="translate(-209.669 -110.731)" fill="#1793d5"/>
  </g>
</svg>
