<svg xmlns="http://www.w3.org/2000/svg" width="13.33" height="13.91" viewBox="0 0 13.33 13.91">
  <g id="Group_152" data-name="Group 152" transform="translate(-2 -1038.36)">
    <path id="Path_2368" data-name="Path 2368" d="M13.477,1049.872a1.739,1.739,0,1,1-1.739-1.739A1.739,1.739,0,0,1,13.477,1049.872Zm0-9.273a1.739,1.739,0,1,1-1.739-1.739A1.739,1.739,0,0,1,13.477,1040.6Z" transform="translate(1.273 0.08)" fill="#fff"/>
    <path id="Path_2369" data-name="Path 2369" d="M7.137,1044.678a2.318,2.318,0,1,1-2.318-2.318A2.318,2.318,0,0,1,7.137,1044.678Z" transform="translate(0.08 0.637)" fill="#c2e4f8"/>
    <path id="Path_2370" data-name="Path 2370" d="M4.9,1041.86a2.9,2.9,0,1,0,2.9,2.9A2.907,2.907,0,0,0,4.9,1041.86Zm0,1.159a1.739,1.739,0,1,1-1.739,1.739A1.73,1.73,0,0,1,4.9,1043.019Zm8.114,4.057a2.318,2.318,0,1,0,2.318,2.318A2.327,2.327,0,0,0,13.012,1047.076Zm0,1.159a1.159,1.159,0,1,1-1.159,1.159A1.15,1.15,0,0,1,13.012,1048.235Z" transform="translate(0 0.557)" fill="#249fe6"/>
    <path id="Path_2371" data-name="Path 2371" d="M6.492,1045.507l-.58,1,4.274,2.468.58-1-4.274-2.468Zm3.695-4.637-4.274,2.468.58,1,4.274-2.468Z" transform="translate(0.623 0.399)" fill="#249fe6" fill-rule="evenodd"/>
    <path id="Path_2372" data-name="Path 2372" d="M11.818,1038.36a2.318,2.318,0,1,0,2.318,2.318A2.327,2.327,0,0,0,11.818,1038.36Zm0,1.159a1.159,1.159,0,1,1-1.159,1.159A1.15,1.15,0,0,1,11.818,1039.519Z" transform="translate(1.194)" fill="#249fe6"/>
  </g>
</svg>
