<svg id="timeline_2_" data-name="timeline (2)" xmlns="http://www.w3.org/2000/svg" width="23.719" height="23.59" viewBox="0 0 23.719 23.59">
  <g id="Group_259" data-name="Group 259" transform="translate(0 0)">
    <g id="Group_258" data-name="Group 258">
      <path id="Path_2529" data-name="Path 2529" d="M18.977,14.154a4.737,4.737,0,0,0-4.724,4.325H10.775L5.723,15.773a.4.4,0,0,0-.39.009.393.393,0,0,0-.193.338v2.359H4.547a3.735,3.735,0,1,1,0-7.47H7.808l5.052,2.705a.4.4,0,0,0,.39-.009.392.392,0,0,0,.193-.337V11.009H19.57a4.128,4.128,0,1,0,0-8.256h-.493L14.025.047a.4.4,0,0,0-.39.009.393.393,0,0,0-.193.338V2.752H5.635L.584.047a.4.4,0,0,0-.39.009A.392.392,0,0,0,0,.393V5.9a.395.395,0,0,0,.4.393.4.4,0,0,0,.187-.047L5.635,3.539h7.807V5.9a.395.395,0,0,0,.4.393.4.4,0,0,0,.187-.047l5.051-2.705h.493a3.342,3.342,0,1,1,0,6.684H13.442V7.863a.4.4,0,0,0-.582-.346l-5.052,2.7H4.547a4.521,4.521,0,1,0,0,9.043H5.14v2.359a.395.395,0,0,0,.4.393.4.4,0,0,0,.187-.047l5.051-2.705h3.478a4.741,4.741,0,1,0,4.724-5.111ZM.792,5.24V1.052L4.7,3.146Zm13.441,0V1.052l3.91,2.094ZM12.651,8.522V12.71l-3.91-2.094ZM5.931,20.966V16.778l3.91,2.094ZM18.977,22.8a3.932,3.932,0,1,1,3.953-3.932A3.947,3.947,0,0,1,18.977,22.8Z" transform="translate(-0.001 0)" fill="#717171"/>
    </g>
  </g>
  <g id="Group_261" data-name="Group 261" transform="translate(17.394 16.513)">
    <g id="Group_260" data-name="Group 260">
      <path id="Path_2530" data-name="Path 2530" d="M356.146,338.021l-3.558-1.966a.4.4,0,0,0-.392,0,.393.393,0,0,0-.195.339v3.932a.4.4,0,0,0,.587.344l3.558-1.966a.392.392,0,0,0,0-.687Zm-3.354,1.641v-2.6l2.348,1.3Z" transform="translate(-352.001 -336.005)" fill="#717171"/>
    </g>
  </g>
</svg>
